<mxfile host="app.diagrams.net" modified="2023-04-07T13:13:53.581Z" agent="Mozilla/5.0 (Macintosh; Intel Mac OS X 10_15_7) AppleWebKit/537.36 (KHTML, like Gecko) Chrome/111.0.0.0 Safari/537.36" etag="KvzsM8YLB7lxuu_Nx1-9" version="21.1.2" type="device">
  <diagram id="X0g2PHqlF3gnpKiDZMsS" name="Page-1">
    <mxGraphModel dx="2320" dy="770" grid="1" gridSize="10" guides="1" tooltips="1" connect="1" arrows="1" fold="1" page="1" pageScale="1" pageWidth="827" pageHeight="1169" math="0" shadow="0">
      <root>
        <mxCell id="0" />
        <mxCell id="1" parent="0" />
        <mxCell id="vvHby_D0oLCphtpdwOgT-50" value="" style="edgeStyle=orthogonalEdgeStyle;rounded=0;sketch=0;orthogonalLoop=1;jettySize=auto;html=1;shadow=0;labelBorderColor=none;fontSize=14;sourcePerimeterSpacing=2;" parent="1" source="vvHby_D0oLCphtpdwOgT-2" target="vvHby_D0oLCphtpdwOgT-47" edge="1">
          <mxGeometry relative="1" as="geometry" />
        </mxCell>
        <mxCell id="vvHby_D0oLCphtpdwOgT-2" value="" style="whiteSpace=wrap;html=1;aspect=fixed;" parent="1" vertex="1">
          <mxGeometry x="20" y="280" width="210" height="210" as="geometry" />
        </mxCell>
        <mxCell id="vvHby_D0oLCphtpdwOgT-3" value="" style="shape=image;verticalLabelPosition=bottom;labelBackgroundColor=default;verticalAlign=top;aspect=fixed;imageAspect=0;image=data:image/png,iVBORw0KGgoAAAANSUhEUgAAAMgAAADICAMAAACahl6sAAAAk1BMVEX/////aUomKjjx8vPJys1oa3VAQ0/k5Ob8/Px2eYGEho7/9/X29/e7vMH/cVT/a01NUFwtMT7/uKr/5uFUV2L/dlr/iXD/8u81OUb/kHn/gmj/1s3/wbT/xbmmqK7/oI3/39mUlp3/saH/lX//o5BeYWz/fGGcnqR7foaytLn/0Mb/p5X/yr//f2X/4NrT1NZjZnCdMTQkAAAGRElEQVR4nO2b63ayOhCGUVRQsJ7rodZDrVU/29r7v7qNouTAZCBUulxrv88/Ici8ZjKZTKLjAAAAAAAAAAAAAAAAAAAAAAAAAAAAAAAAAAAAAAAAgP8JwXz69DT9tHto/DbrfCxfyrGoGPOnyoVnC6uC/u2hQXmG2eEvKwmbvFa9jpJnOv9KNS8/m4rM+zjHIy8z+ZHOY7jXvKLy1Pcznhhs9EfyiC+b8VNF54P1leCtk3pi+VfWMugdcmFqHiqfI+qBB+iSZ8quSuVIm/ZtaD7/Y6sJ0p519ft5eqiM3w2NH8G3SE+5MNOCkT83iX4IIXoEktnI/qWGXA3LpCDC1Tvc/ZWMyD7GvEqnH9zaBYbRcWGUFbF1oxfbqmK4txs2finEmXJKpFAcMA1fbV7oRSoihJBIRfT510IGrBApFAdG35pZqLgYLQnx1t3486+FOEuTfVc6x6t/DdIzYYxFilJNiIW4yeecQpihRMztGqOr67zRtzf5dfxOiH9qNerM/X6WkChXX50bBqTkjk0eX1yIX9tPomacEP8jW0lleQ7F5IT4ZqGjqBC/3ZzEzTghzr8cQi5ZMRWrRwH31XcSUkuasUIyQvCNr5eAuGoVessWkhWCb2zSg+TZSkfZQpxjTiVpvh9LSGDOHXne7XSULsR5LabDepFbuhDTAiuDXAuq0BXTcQ4hruelUmMLIasiOrJH+qk17EWv73VbtTxC/EM9ni9u7VNChu0roemVxtUfwypDRq0rDK92a5lCDg25fZsSkuCZXpqdcqXIWBeGTe3dzZAV4v5o7euJS9oIyZNyqWSMdLebevnWZ4SEw1T7xs1aKyG5Ui4ZPskidFSre0aI3n+Xi24BIaYuOa4MEY3vkDphl4wuhGbrFxAyJs3tm9brU1bHIcPCnEKqiwJCHMq3+ucbpBLWs0I5/vTq6936loezQhqtxWKntJyEBYQQpaF+fIdSwpaAFtIr97HN4TpLSG8XO5K/07tECPlxr3CFm/RUkgRYIhljV+pSBDokF2s9VkhPzIFSDwzVz5kz+32FeMKQlnRZ7qe0kIXUUuo9z17I/VxLWNyTyx6+FJJTQhqys/hinCzshXylrS042MWcsFeuS86fErJWWraS601rIZbhl8sYxRBpK9dPjJCT0rKdXB9aCyH3fKIJ8cV+QhSOoUZJJkWpqumsGGUTayFcuZ1UaP4qYZ4WJcX0oguZqA3D5EbPVsinpY5Kx9glvmKFjBjtWStEEaothRRYthtrpfcQIjrVUoihsMtinEru6VqWY8RYauf4MuUJ9xzsDTsh+YqNOn3Dt22TFx+U6/nDr8iet1ZCcpV/05gWiWIB1VSu558QxZTaUoRseR2B7erwhmHZLn5PJUVxcqcooQhabUVIxu5DkZEeQ493yT45aZRXW3zS2FIbSkmo6oEaxEif5ozGM3q8i0EijZKTvGJi03iRoMSDwhcd1OX2sYm0d0kdnqGgi43yb7++xqODskakFlaL+FdRlmBxsiatbxoL1/E9skBH7t8Qx5lI6PEuJ+zVyX5xWLS0qoppqXtY7GXBw/j71NXluX+Ipa5PJlkrJ+O0ww065WpXM8hZfLi6m5e6QQihs95LPPL7OeqP9GbonrCKE9IjWyWhIlX1SgsxJVmxfeOsbXhTXYgoHEazgDnX6lIFup8klLhaEYYQYtqtutlnqs8JDCGYKIG6jBBCeV0a0TWty1JCzElWspZ9zQjFhhDstzS7hi6T/XadUC9OrpXvral9khLChKYksmaFYtN+j7KtMDlXrTghUYSQ2//oU5+rOJ9XaysN2GNOor4wYJNK8157rRkn7pP64eIm6+aN2GvC1o3dpRNr+4uWyXZNVRK93TbulsnPLmwflLyLmyuWcjxiQzG32e56p5PNqTKfryKGnuddfgTfV+ZE5ijgSnvBYx8FNBk3In7ksXE73naXugQMvn+kvd6Utdid4ygF2wPM5FAx11P+DmJe54+UU7PKA3hW+sxD9iH/QE/ARg/QIY5+ptFwllxlfJQnyKdV2SbmpMgfYQbiodGqTOOseC3w1yTn+xrvlo/hVzHnP4tVprZ/MVotZ5u3h/mHFQAAAAAAAAAAAAAAAAAAAAAAAAAAAAAAAAAAAAAAAADgb/gPmExhRDN8eg8AAAAASUVORK5CYII=;" parent="1" vertex="1">
          <mxGeometry x="75.83" y="330" width="90" height="90" as="geometry" />
        </mxCell>
        <mxCell id="vvHby_D0oLCphtpdwOgT-4" value="Local&lt;br style=&quot;font-size: 14px;&quot;&gt;" style="text;html=1;align=center;verticalAlign=middle;resizable=0;points=[];autosize=1;strokeColor=none;fillColor=none;strokeWidth=2;fontStyle=0;fontSize=14;" parent="1" vertex="1">
          <mxGeometry x="180" y="238.75" width="60" height="30" as="geometry" />
        </mxCell>
        <mxCell id="vvHby_D0oLCphtpdwOgT-6" value="" style="shape=image;verticalLabelPosition=bottom;labelBackgroundColor=default;verticalAlign=top;aspect=fixed;imageAspect=0;image=data:image/png,iVBORw0KGgoAAAANSUhEUgAAAQMAAADCCAMAAAB6zFdcAAAAxlBMVEX////eTDYvJwctJQAZCwAXCADBwLkrIgAdEgDh4NzeSjQQAACtqqPcPiLdRCzcOx7Rz8rqlownHgD32NUjGQC8urNwbF4pIAAgFgAdEQAhFAAAAAAYCgDuqqH++fgiGADhW0gxKAD0x8Ly8e/pkIX65OHg39vW1dD1zsnuqJ/hYlCHhHjywLqdmpDkcGBTTTmmpJtsZ1h7d2rt7Ok/OB798fBcV0VIQiw6MhPjaFfmfG6EgXWTkIXgVkHng3bxubLbMw/ldWcxVJrJAAAI6klEQVR4nO2ca3eiOhRA0UBR8FUEFWuxHdo6M46DQn10aqf3/v8/dUF5JCE8tALetc7+CLGYbUjOyYFyHAAAAAAAAAAAAAAAAAAAAAAAAAAAAAAAAAAAAAAAAAAAAAAAAAAAAAAAAJADwzSq/gox7t+kj6fnki7m7C21oVr7ZknXy4Xx1pYkqdP+VsrVNGEkojoSR0KrlOvlwvjZqXlI3TIk9GRUP4Lubkq4Xi4CBSVJ2A7rAeKu+MvlIlJQioSmUI+QZ0VfLhe4gjIkaDzmQL+KGYFUUIKElo45aCyLvVguaAXFSyAdUOPAHtgug1KnSuOBVlC4hB4+H0yo3vKq4iKXe4c8tWMOCpZgqihyIJvEOUdmjo6iKV/CvBEqGNnkqRuhEgflSzC2I1/BdEcOA24xKtnB2k8PSpdgDuSGqqgNeUUp4CyxXAfudFiVBK65nNvz5Qt92J8OSnPgLoqSVJkENvNpqQ4OcUEkocuS8KuUbxIRDIOSHPhxQSjhtuvmzlLFEsJkqhQHYWgkdUIJb2+dtlShBHOjJkWPRYBFh6EEj+8PdO5QnoTWUInChuKzCCJAJiRwfy4gwWy+NJv0qhfgNEkO7WaarfJY9FhXxwG6fPoXyMGa/LVJCQ9fuh1my8FuJB8Y7QZLjcRrsbqTce68gy93Oh4/E6DxJbsesKbTJKm9js5+o5bJEySYi1d5rIjht1fGPI6ge40skegi7+VMTTnW9YjRxQUwFLgDAT/fPnd1WEwbYkpf6ujRbWQ8kj94JQ7iCmrSb7zBh0SfziXBtCZJwxl34PDkwSocMPcL0h3kkuA8Kin9iBzMBPJgBQ5YCsh7wfgn5iCHBOM1U8HRgXY3JA4eHdx5Gyf4jSQqIUIZCmq17nesDTt3yJBgj/AOqA19TEz06qjBC7LXG1NbyTp26uDAWQ1cNpEE0RqErEpRUJN+4q3OkDDDBvNQ3u6XreX7Toi6ul+0tN6Lc2zstHaIdHCkGU0VxcWJSQpqtc5fvN3pElZYiGcFFQNNDX7YMbVpeMMzHUyKd5CswJXw0MdanirBiXaKVWzoNhX/90YKGTViu6rlOmAsihjtJ69NP3U/IVFCVDVBjwbr+HhPtK/KQbqCWufWa9TvniVhHiZ8owVxIgiISDVVOchQEDpI3177ZP/xTbjeCWT50A7mCbmHH67GQZaCwEFbiiR0Op1Y2MyWsA1XtYZDnFhMg+NEMlyJg0wFoQNsZ+nP7dNbbFOFKSF0QE9+iyBsUOf44SocrD+yFEQOIgkez7/p/QSWhGgc6OQ42AcThULUUipwkEMB5oCUwP3NISHKh6n5IJRT+Tj4na0Ad0BKMKgcSvqnH7tAOPVRfZ2Fa+a44vmgz9g3T3VQkz6wj3/Smyo/Y1eIqumogddNontEICLF8h38yDEMSAedP9jH1/Qq2V3TV8CerhEfw7vBsdSoq8RcWb6D29Md3GIfN+iyQzf+FGMUINSRvNKapunc2HJ0UCGTv/Id0IM5h4Mn3AEdJXTjD5j28E0Qhfc2Syf4hgIZIlXgYN2N74qkO5DesI/3KYWd34xr2ON6CtMB2bqCdeE+x6RIOKi1sbn/iV4cmQ/0blVW548M6acMqoiRfmRLIB1gA6FPhopS+zvzEqals7p/uDcQ/VhyJbFytgTSgbsy+Dd9X8qlgMOTRwLEWw7dtJqcKVMC5aDW+fh8Noz+U75RkChBbFDZ9IFMB+NC6o1ZEmgHbnfdHLLdya9gfwwKka4OvYfSERqquvy6YNUdMx2Q4ebFyJAQc+B1mU6dU0fBcXlEO22+en1UVHG3eW/FHrY5kuAg2mUUrYv2PSRdAssBRaqCd79bspbjq7Ad4CUoOcHeV0mVkO0gXYE/jpVc1QC2AwMrSaBHX4LRs5Oq+GeRIkHqHh0wikyhgni+GLL340Qk5vrCbAccVnZwQ27rfbEfbGXhwq95JEqQ2v6uwD1ddc6lIAyVRWu59KopTSfVBVZf0LF7Z0DU60R1OvXqb4qd/IfOIUlCVGz7xW6RqoCzwuxIHDV0XnDTBUF8tTb2fqm9kDbMmbZ4x35wtLMX2uzYRqNq0n4L/bIOEiTgeeITK8tMV8AsGyNRHCrTMS/z2/ebyMPyjh8RpUikjPi7Y/nB5JnVeyrhKkgCviPwzHpSMVUB+TB+HFEVxH1gocUKqYM4asEcCJcPFhgJlPSAN6CjgkwFRMWVDRqjXg4HnDWNn0RT9dIOGBKkf/HzD7HnUDIUcKaS8QSKi+iP6HQHxkYmH+dBCt+wC3jtKyaB3CGsxaLDDAXu0jhhdIyWoByysBaP4jSinKK1k6dD5DlFojKSx6vWRcODkJgEfGdo3T1ZAcetMu8GdxU8dLQ1EePoeF7V2692qs7r4tZe9Ip7J5qW0LmPzlG7j7kUuMta9qM4J73OaRT/QjglAdsbojbicyoIKwwiSp4a5GJG9dnQEjp+kPSd3i/IqcBf1JTtDo35iTDhG+PpIYfGHVx6nf8qsZHw59dz//Pf7lkKlv50IHiBr+k0Zz2ttdzbm62CRz30a3zVE5sT2t0uXWXOqaDp91QZ0GdM7ZH5+NW1kLnbnFcB9+5HNjwj6e9Fy6ZwbfcClykhtwLu9RjXoDrjnBOtmvJV/dcLn1QJ+RUET6UhkbGg4VsFF/3ylyJFQn4FnBN0k7UjHqXV8dniOkiUcIICbB8w9iL/DCs9X93SGJAg4RQF+B5YQ7RbvZnjmI7z0tPm2wlWet4U1omvwpRwmgLOjn5spDQmwvGtlYmuYjkg4mPVpuuBtZ9wmgKuKWfmzuhq74QD93Rp/lQFXpyYIUFRr1pBTMLpCjwJaXnjUN5c8Y1whLgdzlHgLgAbOeHtPFGVresLkuNgEs5T4DJ7fxX0KZ4qInGo6sLr/Dr+A1ImoYSzFXg0tf3Kqk/1ieDibQRt5q1rjI8T8OeELyk4YrixgfcOr2Ne2ZZJNp/ddqfTrn1Zwf+a9f3fp8/r+7eOAAAAAAAAAAAAAAAAAAAAAAAAAAAAAAAAAAAAAAAAAAAAAAAAAAAAAAAA18l/+XfK4fMM2zsAAAAASUVORK5CYII=;" parent="1" vertex="1">
          <mxGeometry x="160" y="286.25" width="66.75" height="50" as="geometry" />
        </mxCell>
        <mxCell id="hh3rVQ247M3e_EvfTHMk-2" style="edgeStyle=orthogonalEdgeStyle;rounded=0;orthogonalLoop=1;jettySize=auto;html=1;entryX=0;entryY=0.5;entryDx=0;entryDy=0;" parent="1" source="vvHby_D0oLCphtpdwOgT-7" target="vvHby_D0oLCphtpdwOgT-15" edge="1">
          <mxGeometry relative="1" as="geometry">
            <mxPoint x="180" y="650" as="targetPoint" />
            <Array as="points">
              <mxPoint x="124" y="620" />
            </Array>
          </mxGeometry>
        </mxCell>
        <mxCell id="vvHby_D0oLCphtpdwOgT-7" value="" style="shape=image;verticalLabelPosition=bottom;labelBackgroundColor=default;verticalAlign=top;aspect=fixed;imageAspect=0;image=data:image/png,iVBORw0KGgoAAAANSUhEUgAAASIAAACuCAMAAAClZfCTAAAAilBMVEX///8AAAACAwXAwMA/Pz9paWm4uLixsbH39/dXV1fx8fEAAANycnKen550dXPT09ORkZIdHR3W1tbf399kZGR5eXlqamrFxsfOzs6srKwcHBzj4+N+fn6/v7+ZmZldXV2Hh4fq6uqlpaU1NTUjIyNJSUkMDAwWFhYqKio3ODhFRkZQUFAWFxYlJSeBukPvAAAFN0lEQVR4nO2ci26jOhCGY2gJJXC4hUsIl5JQkt7e//XO2K60WamLaROXhf2/Soxs7Inm74wxtGG1AgAAAAAAAAAAAAAAAAAAAAAAAAAAAAAAAAAAAAAA+AeIK0sTVTR1bDehPTKNdPup47sBT8wwjI2hAXLas+PU8V3PvmeGviQi1/HUEV5NRIGk1loLVsM2LJ86wqvxKYpal/OSnGe6nP8YPmVRoMv5UiTa6JTIgETDIIuUQCIlkEjJI61Fy7joQ6JBNEu0lK0jJBoEhaYEWaQEEimBREoinbexkEgJJFICiZQsRSIs1wqQRUqQRUogkRLthebrcv5jQCIlkEiJ1rUoWIhEGrMoYAYkGgZZpAQSKUGhKYFESiCREqxFSiCREkikBBIpWYZEsU6JakikAhIpgURKliKRxudFkEgJJFJSL+IeDVmkBBIp0SwRg0TDLEUirfuiRUi00SiRRxLN/0vWXCJt32o8LGO5Nhg7PmjieRlZZGj9hvVmCRJtqBh0soBC06rPIiRaOYTtXPJ761qmju8G2LZj62Tq+K7H0l1ou6kjvBb7RbdEz3PPo4qxfnfxmo/dpeHH4deJ/Db8s/M9Y9bUMV7JA91+ZM2W2Cd0aLI1b6Qr3tNEAW+UdiMaB2EyMbrZ+cKsXD6wznnjfpXyLqsSk2LhIX9k7GnqGK8jp0po+R6YvfqiLPZP/PggtwKxaLzuRSNzhVnvhCkrYZw7MUIOb18vGpGo4JeWDubUUV5FQ8GaIqRKKPAi4zscZJgnfryX4uXppUSunBU1/NjJWetaCiteq1WupbAJCT51lNfAkyiOcz/yczv3ib0jGzFvRLaf008s+xzRlzutLwa2ND6Snblvi75Y+MidvXBFfTQr5urN+YUPlBhbvw/DwqjXrChCFid9WBS9fT6Fxek+YkUYMs9iIZ3y074oCmatGY3v3ZzxllnTuYKS6RSGpzvHoL6+5NMKVgU9zT5F/DOmjvP78N9wlF6sQef2LMrNkeuN3DPtZMn4D5eFts2FsWRFmokwtiixY9tdrGcu/7+K+d7KJnxxfeuK7rTds67rTmVMKRUanslbbBf0YRcy80B5QwnWvHEjsig8bSMWdl2/s2jkW+95Rkcj84BnZB8nJz69faDU6sI9SZtOHel32fMXMPlmlmWm7WfCROaHIWs6dM7MKic2xUlxJJv9apmxIyZETkWmim3zV2cW2ZU4l9HHzPOdc/aqZOxOXtDZSpr2SRbMWV6a5M7bl1f7TyllvT3JonqWBfraypO2NHtyk0wd7ffggawfRRSeXHW2MrZ3KVgfdTLEhz9LlEbCnKMPpXuptNgKsCwQpuZr2TzfgEnqHJ1D7dGPbXk1GX8feJ5XV21Azfrg0MHzAnvHzafUli2Geu2BOwgci7sL2rzmnZYTcOcHvoo/Th3td+BFcUyTMiHcROCmvFW6bsm7y1R0lvfuf3/ClTOShJtSzuQTP/wJB2Xi8gvdHJ8bBcwY+dB66/6ZcR7ok7T9IUoftsHGvSmW9UNuXsd6YfN7JnIYGduGNUNuHke6MZj3U5HdjH5kbP3wHyJ349xsKI1+KrJbMTI0/uuvhvzk4/3M7QntaXxo7ZAfZ7yfwTXt72PNxofWDFzQ3Ga0H4Otp476S5zHR6bYGXzBz3nqqL9C9ZXQbsVmeFX7y3gft+O7Ne9Txz0epzIr88epqmo+dyFxs03vf5z0vpnPY6N8mjpjM3pRT3S8m4TjfJ9hAwAAAAAAAAAAAAAAAAAAAAAAAAAAAAAAAAAAwIz5H6yahgeulXM4AAAAAElFTkSuQmCC;" parent="1" vertex="1">
          <mxGeometry x="65.83" y="420" width="116.67" height="70" as="geometry" />
        </mxCell>
        <mxCell id="vvHby_D0oLCphtpdwOgT-9" value="" style="rounded=0;whiteSpace=wrap;html=1;strokeWidth=1;fontSize=14;direction=south;fillColor=#fff2cc;strokeColor=#d6b656;" parent="1" vertex="1">
          <mxGeometry x="670" y="273.75" width="130" height="222.5" as="geometry" />
        </mxCell>
        <mxCell id="vvHby_D0oLCphtpdwOgT-10" value="Users" style="strokeColor=#dddddd;shadow=1;strokeWidth=1;rounded=1;absoluteArcSize=1;arcSize=2;labelPosition=center;verticalLabelPosition=middle;align=center;verticalAlign=bottom;spacingLeft=0;fontColor=#999999;fontSize=12;whiteSpace=wrap;spacingBottom=2;" parent="1" vertex="1">
          <mxGeometry x="700" y="286.25" width="70" height="77.5" as="geometry" />
        </mxCell>
        <mxCell id="vvHby_D0oLCphtpdwOgT-11" value="" style="sketch=0;dashed=0;connectable=0;html=1;fillColor=#757575;strokeColor=none;shape=mxgraph.gcp2.users;part=1;strokeWidth=1;fontSize=14;" parent="vvHby_D0oLCphtpdwOgT-10" vertex="1">
          <mxGeometry x="0.5" width="50" height="31.5" relative="1" as="geometry">
            <mxPoint x="-25" y="19.25" as="offset" />
          </mxGeometry>
        </mxCell>
        <mxCell id="vvHby_D0oLCphtpdwOgT-12" value="Dashboard" style="strokeColor=#dddddd;shadow=1;strokeWidth=1;rounded=1;absoluteArcSize=1;arcSize=2;labelPosition=center;verticalLabelPosition=middle;align=center;verticalAlign=bottom;spacingLeft=0;fontColor=#999999;fontSize=12;whiteSpace=wrap;spacingBottom=2;" parent="1" vertex="1">
          <mxGeometry x="700" y="394.2" width="70" height="78.87" as="geometry" />
        </mxCell>
        <mxCell id="vvHby_D0oLCphtpdwOgT-13" value="" style="sketch=0;dashed=0;connectable=0;html=1;fillColor=#757575;strokeColor=none;shape=mxgraph.gcp2.application;part=1;strokeWidth=1;fontSize=14;" parent="vvHby_D0oLCphtpdwOgT-12" vertex="1">
          <mxGeometry x="0.5" width="50" height="40" relative="1" as="geometry">
            <mxPoint x="-25" y="15" as="offset" />
          </mxGeometry>
        </mxCell>
        <mxCell id="vvHby_D0oLCphtpdwOgT-31" value="" style="edgeStyle=orthogonalEdgeStyle;rounded=0;orthogonalLoop=1;jettySize=auto;html=1;fontSize=14;entryX=0.5;entryY=1;entryDx=0;entryDy=0;fontStyle=0;sourcePerimeterSpacing=2;" parent="1" source="vvHby_D0oLCphtpdwOgT-15" target="vvHby_D0oLCphtpdwOgT-19" edge="1">
          <mxGeometry relative="1" as="geometry" />
        </mxCell>
        <mxCell id="vvHby_D0oLCphtpdwOgT-15" value="" style="rounded=0;whiteSpace=wrap;html=1;strokeWidth=1;fontSize=14;fillColor=#dae8fc;strokeColor=#6c8ebf;" parent="1" vertex="1">
          <mxGeometry x="283.5" y="570" width="261" height="100" as="geometry" />
        </mxCell>
        <mxCell id="vvHby_D0oLCphtpdwOgT-16" value="Cloud&#xa;Composer" style="sketch=0;html=1;verticalAlign=top;labelPosition=center;verticalLabelPosition=bottom;align=center;spacingTop=-6;fontSize=11;fontStyle=1;fontColor=#999999;shape=image;aspect=fixed;imageAspect=0;image=data:image/svg+xml,PHN2ZyB4bWxucz0iaHR0cDovL3d3dy53My5vcmcvMjAwMC9zdmciIHhtbG5zOnY9Imh0dHBzOi8vdmVjdGEuaW8vbmFubyIgd2lkdGg9IjE0LjY0MDAwMDM0MzMyMjc1NCIgaGVpZ2h0PSIyMCIgdmlld0JveD0iMCAwIDE0LjY0MDAwMDM0MzMyMjc1NCAyMCI+JiN4YTsJPHN0eWxlIHR5cGU9InRleHQvY3NzIj4mI3hhOwkuc3Qwe2ZpbGw6I2FlY2JmYTt9JiN4YTsJLnN0MXtmaWxsOiM0Mjg1ZjQ7fSYjeGE7CTwvc3R5bGU+JiN4YTsJPHBhdGggY2xhc3M9InN0MCIgZD0iTTAgMGgxNC42M3YzLjk0aC01LjN2NS4zM0g1LjM1VjMuOTZIMHoiLz4mI3hhOwk8cGF0aCBjbGFzcz0ic3QxIiBkPSJNMy45NSAxMC42N2g1LjM0VjIwSDUuMzV2LTUuMzVIMFY1LjM3aDMuOTV6TTE0LjY0IDIwSDEwLjdWNS4zNmgzLjk0eiIvPiYjeGE7CTxwYXRoIGNsYXNzPSJzdDAiIGQ9Ik0wIDE2LjA2aDMuOTJWMjBIMHoiLz4mI3hhOzwvc3ZnPg==;strokeWidth=1;movable=1;resizable=1;rotatable=1;deletable=1;editable=1;connectable=1;" parent="1" vertex="1">
          <mxGeometry x="473.16" y="589" width="32" height="42" as="geometry" />
        </mxCell>
        <mxCell id="hh3rVQ247M3e_EvfTHMk-1" value="" style="edgeStyle=orthogonalEdgeStyle;rounded=0;orthogonalLoop=1;jettySize=auto;html=1;" parent="1" source="vvHby_D0oLCphtpdwOgT-17" target="vvHby_D0oLCphtpdwOgT-16" edge="1">
          <mxGeometry relative="1" as="geometry" />
        </mxCell>
        <mxCell id="vvHby_D0oLCphtpdwOgT-17" value="Cloud&#xa;Storage" style="sketch=0;html=1;verticalAlign=top;labelPosition=center;verticalLabelPosition=bottom;align=center;spacingTop=-6;fontSize=11;fontStyle=1;fontColor=#999999;shape=image;aspect=fixed;imageAspect=0;image=data:image/svg+xml,PHN2ZyB4bWxucz0iaHR0cDovL3d3dy53My5vcmcvMjAwMC9zdmciIHhtbG5zOnY9Imh0dHBzOi8vdmVjdGEuaW8vbmFubyIgd2lkdGg9IjIwIiBoZWlnaHQ9IjE2IiB2aWV3Qm94PSIwIDAgMjAgMTYiPiYjeGE7CTxzdHlsZSB0eXBlPSJ0ZXh0L2NzcyI+JiN4YTsJLnN0MHtmaWxsOiM0Mjg1ZjQ7fSYjeGE7CS5zdDF7ZmlsbDojNjY5ZGY2O30mI3hhOwkuc3Qye2ZpbGw6I2FlY2JmYTt9JiN4YTsJLnN0M3tmaWxsOiNmZmY7fSYjeGE7CTwvc3R5bGU+JiN4YTsJPHBhdGggY2xhc3M9InN0MiIgZD0iTTAgMGgyMHY3SDB6Ii8+JiN4YTsJPHBhdGggY2xhc3M9InN0MSIgZD0iTTE4IDBoMnY3aC0yeiIvPiYjeGE7CTxwYXRoIGNsYXNzPSJzdDAiIGQ9Ik0xOCA3bDItN2gtMnoiLz4mI3hhOwk8cGF0aCBjbGFzcz0ic3QxIiBkPSJNMCAwaDJ2N0gweiIvPiYjeGE7CTxnIGNsYXNzPSJzdDMiPiYjeGE7CQk8cGF0aCBkPSJNNCAzaDZ2MUg0eiIvPiYjeGE7CQk8cmVjdCB4PSIxMyIgeT0iMiIgd2lkdGg9IjMiIGhlaWdodD0iMyIgcng9IjEuNSIvPiYjeGE7CTwvZz4mI3hhOwk8cGF0aCBjbGFzcz0ic3QyIiBkPSJNMCA5aDIwdjdIMHoiLz4mI3hhOwk8cGF0aCBjbGFzcz0ic3QxIiBkPSJNMTggOWgydjdoLTJ6Ii8+JiN4YTsJPHBhdGggY2xhc3M9InN0MCIgZD0iTTE4IDE2bDItN2gtMnoiLz4mI3hhOwk8cGF0aCBjbGFzcz0ic3QxIiBkPSJNMCA5aDJ2N0gweiIvPiYjeGE7CTxnIGNsYXNzPSJzdDMiPiYjeGE7CQk8cGF0aCBkPSJNNCAxMmg2djFINHoiLz4mI3hhOwkJPHJlY3QgeD0iMTMiIHk9IjExIiB3aWR0aD0iMyIgaGVpZ2h0PSIzIiByeD0iMS41Ii8+JiN4YTsJPC9nPiYjeGE7PC9zdmc+;strokeWidth=1;movable=1;resizable=1;rotatable=1;deletable=1;editable=1;connectable=1;" parent="1" vertex="1">
          <mxGeometry x="318" y="593" width="42" height="34" as="geometry" />
        </mxCell>
        <mxCell id="vvHby_D0oLCphtpdwOgT-60" value="" style="edgeStyle=orthogonalEdgeStyle;rounded=0;sketch=0;orthogonalLoop=1;jettySize=auto;html=1;shadow=0;labelBorderColor=none;fontSize=14;sourcePerimeterSpacing=2;" parent="1" source="vvHby_D0oLCphtpdwOgT-19" target="vvHby_D0oLCphtpdwOgT-9" edge="1">
          <mxGeometry relative="1" as="geometry" />
        </mxCell>
        <mxCell id="vvHby_D0oLCphtpdwOgT-19" value="" style="rounded=0;whiteSpace=wrap;html=1;strokeWidth=1;fontSize=14;fillColor=#f5f5f5;fontColor=#333333;strokeColor=#666666;" parent="1" vertex="1">
          <mxGeometry x="279" y="280" width="271" height="210" as="geometry" />
        </mxCell>
        <mxCell id="vvHby_D0oLCphtpdwOgT-21" value="" style="strokeColor=#dddddd;shadow=1;strokeWidth=1;rounded=1;absoluteArcSize=1;arcSize=2;fontSize=14;" parent="1" vertex="1">
          <mxGeometry x="332" y="300" width="168" height="60" as="geometry" />
        </mxCell>
        <mxCell id="vvHby_D0oLCphtpdwOgT-22" value="BigQuery" style="editableCssRules=.*;fontColor=#999999;shape=image;verticalLabelPosition=middle;labelBackgroundColor=#ffffff;verticalAlign=middle;labelPosition=right;align=left;spacingLeft=20;part=1;points=[];imageAspect=0;image=data:image/svg+xml,PHN2ZyB4bWxucz0iaHR0cDovL3d3dy53My5vcmcvMjAwMC9zdmciIHhtbG5zOnY9Imh0dHBzOi8vdmVjdGEuaW8vbmFubyIgd2lkdGg9IjIwLjAwMTA0NTIyNzA1MDc4IiBoZWlnaHQ9IjIwLjAwMTA0NTIyNzA1MDc4IiBmaWxsLXJ1bGU9ImV2ZW5vZGQiIHZpZXdCb3g9IjAgMCAyMC4wMDEwNDUyMjcwNTA3OCAyMC4wMDEwNDUyMjcwNTA3OCI+JiN4YTsJPHN0eWxlIHR5cGU9InRleHQvY3NzIj4mI3hhOwkuc3Qwe2ZpbGw6I2FlY2JmYTt9JiN4YTsJLnN0MXtmaWxsOiM2NjlkZjY7fSYjeGE7CS5zdDJ7ZmlsbDojNDI4NWY0O30mI3hhOwk8L3N0eWxlPiYjeGE7CTxwYXRoIGNsYXNzPSJzdDAiIGQ9Ik00LjczIDguODN2Mi42M2E0LjkxIDQuOTEgMCAwIDAgMS43MSAxLjc0VjguODN6Ii8+JiN4YTsJPHBhdGggY2xhc3M9InN0MSIgZD0iTTcuODkgNi40MXY3LjUzQTcuNjIgNy42MiAwIDAgMCA5IDE0YTggOCAwIDAgMCAxIDBWNi40MXoiLz4mI3hhOwk8cGF0aCBjbGFzcz0ic3QwIiBkPSJNMTEuNjQgOS44NnYzLjI5YTUgNSAwIDAgMCAxLjctMS44MlY5Ljg2eiIvPiYjeGE7CTxwYXRoIGNsYXNzPSJzdDIiIGQ9Ik0xNS43NCAxNC4zMmwtMS40MiAxLjQyYS40Mi40MiAwIDAgMCAwIC42bDMuNTQgMy41NGEuNDIuNDIgMCAwIDAgLjU5IDBsMS40My0xLjQzYS40Mi40MiAwIDAgMCAwLS41OWwtMy41NC0zLjU0YS40Mi40MiAwIDAgMC0uNiAwIi8+JiN4YTsJPHBhdGggY2xhc3M9InN0MSIgZD0iTTkgMGE5IDkgMCAxIDAgMCAxOEE5IDkgMCAxIDAgOSAwbTAgMTUuNjlhNi42OCA2LjY4IDAgMCAxIC4wMDctMTMuMzYgNi42OCA2LjY4IDAgMCAxIDQuNzI3IDExLjQwM0E2LjY4IDYuNjggMCAwIDEgOSAxNS42OSIvPiYjeGE7PC9zdmc+;strokeWidth=1;fontSize=14;" parent="vvHby_D0oLCphtpdwOgT-21" vertex="1">
          <mxGeometry width="30" height="30" relative="1" as="geometry">
            <mxPoint x="15" y="15" as="offset" />
          </mxGeometry>
        </mxCell>
        <mxCell id="vvHby_D0oLCphtpdwOgT-24" value="" style="shape=image;verticalLabelPosition=bottom;labelBackgroundColor=default;verticalAlign=top;imageAspect=0;image=data:image/png,iVBORw0KGgoAAAANSUhEUgAAAacAAAB3CAMAAACQeH8xAAAAdVBMVEX///8ptegptOhBv+v1/P6W2fMZsufi9fz7/v8Ar+Zlyu/x+v655vd+z+9tx+2L1/Jixe05u+qk2vPI7fns+f3e8/vX8fvD6fjh9PyE0vGz4/bP7vqr3/Wh3vVtzO+Q1fJUw+2x3/Wo4faW3PRRxe12yu5SwOyw4Am9AAAR0UlEQVR4nO1dC3uiuhY1ASIjoKYiFFBknOr//4k3eyeEJETb3rFTe2/W980ZB3mErOz3jmexCAgICAgICAgICAgICAgICAgICAgICAgICAgICAgICPg+ZGU8P5R9x0gCbmPXbLf92aJl32yH9an8rhEFzJEeCBUgK4OVmuOhofu+YQU4qBklANan46GOq0Pb5XeOLMBA+iY5EaxU47ETGXH4zqEFGMiI5umoDpVrPCT+w04z/yLge7DUssM246EtVeSxIjh9T4IbPJHA03NhSUbFZ/DEUO3RwNPzwCtPJMjT9yMul4Z38HG9Vy5D3PvvkObNel20ev69PLE5T/vksr4k1ex+AV+DDSeUUb6u1b8VT/S+PKXJlTDGyLD7jjH/H+Issw+U0pWUjY/Yp7SNmCSTRT9DotJlftwkMpuS7pIufed8jer48XO/EDEfQyPK2GafTvJE6czfUzxl9YqNMkdY8gyv8Q7i+o0BOC6qM/vFPppXqcgvln/hyD6KjpMJLDru3/Mj4rQryGiuxGG6ev4MRZaMI8YMyyCW5tsHLz0ywvovHNpHsdM8UeRie+imvJEvH7FLOKPE4Ont6XlKD3wcMYpGJN4m+uC1CRMr8QvH9lEsOdFxrZx5bYt88kT41T6fsObp9d7rAE4RI5wfcU19kif2DDwteuYQRdU/6cwvpzZDitf67u2fATmMvt9ncSyX1E+Up0U8UHfm78nTjKbj86s9sRTpYByIyGd4os/B02LZcJ+YfIyn4fz0NC0ysRJ1iQYQCV/2x8kTOK3F6JrbXM3iJ/f76EekI0ouQgyzYeCH8iTeRIQXIwcGF6Z9mitHRpqniADfRSnG+8vsF4jE8H8kT0I3HIS37So3n97TdLLVz2BJjF64Eb9M9Szk6TM8kSfiSay6ZAwy9F/37NPwDEH6x+DhiXyGp+fwyydUDaeWnbrN03D8QWWoEngyZf+H87RY1AVnBhvsjzq+XFNT412T/bcO8xNY7uq6Fe/EaoHR6fnr+Kk+fLPOL/OVwdOvMYSNCzpla8mp+iGGCRQBF4Bhw99Xpav/1o/4zdk/bDjN2su6OLsV2RIqFoqSSCu3dnID+24WMcVtsb4cPbXdZXsqLuvLqbYu2TeXXD5qc1mvi6S+oUPTXVLMTsj75l1hTutLIf275JfpwTKVfPXIU9odrWelB9Wk7dF7rSCevThXN+LqS3N+/BKuVlC6INHZvXO2QeVHKZ8yQmkDjrk4/S2fD6R+wxaXWcWw67ksjwh71k5MCeFkQ7VYbuS34lHRHw9T5XHAxQJnRJtxEXRXxor3QuuKM5XjhmzC5B1NPDnxUwbPgpHis4DiXMzBRt7BlacWK0GtM1JK5ZPMN30ElmMJib3N1vO+uQot0VuifYRDnuxD3PVM3snRBWXBdJGKMvamWRROCeVta2bdWeTSn01ijSdw5bhAnzt/p4ScvogHX9WzlN4j8HekFp7jR6Qtn8ppoNiTbCFuwdYwpplfDidT0ug5K49W/QDe5ZFMtURVMsS4itoVkn3eSvWWLpcqQizrtp6rtuo0eR40Mbth5DpgwjAQlEW9AtF5HPAyrN3BKBi304RlQ+TYGJyDlxeo7paDOP3lvnIpIU9UjKPO84O4AWvzPB8Vps1TeZL1TvEsiktLhIaV4ImOPFnylEP0who9E9VKahom3wW5ah7XhB8Xk2MnVuvphlmMX9bbVev/TuD1JTLWEjU2eGQFvnvU/M7r9mWLw1dWXBfxGe+T34fTStbwjsbkl5jEx+/b3y+95FS2BTRQmbw/Dx2cbbzQ3C8387BLOVKywmddpM7fCgeX+XiqkaapmacbcGxke3r5/fulGEDJU9o/jKi4tyIi4Wp7b70RQ2D84F+/5WFrevGEDtM9clTijfI5lqjFtpJG3bxUdKW4cVrWPTpkU+AsVCbV34sTukbqVbi+Bh12v5QiliCNjCHP41yDp1LmNvt6iVeU3WYsnPrkqQZRZBe9HjtZbOg72ViX7ds35G39qPAyPVlTLMZ6nTkUgiapsbm3mSDfOnlZ1k/yhLc39gwI9cCukkYpT9QQoGwDqzAaz04T9EsO09VpDjKHuiwe3mvJgI4PlhgHfHmjkaf0iC9hhO1pHd3kaXfF19TLcblCpWEapGyD1z6seNpJT4rquuDcmKcbrdRmEpV2b6DLpT4eXd9JQZYXkB9TRNNzr6RAJTcsbQoLQkfVOazoyJaZCuaWnBfYsEAj885xfbay9hDWctN39+WNRp46XIf2s9AGivmY8YTSRAq9GuMGpmDr1AzQgj1s/1Gc2NV2rExbsVF20t+4j02rZlayosYLiIUm1vTFv6YkTxvLb4hXTAsUGifupg938PagWEuYQvPbhDFumtcVLHnz7nd4StHbOTvP2nOvPHWQv6WXaY2AsaLDrLSDjvv2USmb7BC5xQoCDsU4uVki6+x8TlSVjJcatV9uWjjgiWxfvQ/Gppir47iA2VEVfPx4mgnwcRzFSjhXhmWHqgUrptMrmGSLZZ99Uv5eN6pTGy2uT4enCm2T4SLE6O3MbWWMDuTDNvSl1YnYRgpcldGhEEYCwJNOWTKt+iCsc6tRlFysjBdqBFJ4iUKe3O0EaLQSfWk092rgMrTguC11Et0jqt/pSTDuwVrMd3gCl4PPa50ZMODwVIFnx96M0ATEztsztr8Cy4/rvRcxKmXOfI95BSVNIqxJUQuL0FReVPU2S6jKBzdWPuA3g8+LRL13dA4COxQXdhkZBRUTR/A1OnWCvh7bO+jkN2RAp73p8bbey+BWPpOfz/ReBaNmljaDFUK8Ac1JGFP+yAxgmg+m+pJm6goLTLoH0wonKl2zXLNZ/T2apymytco9rWYZROCJz2IyCCwv8KGCZetT7hVYqBwkXZx6HY+2aLUpH0dQ87lfcJOnbtK2NvaDofdAy1YYAtpGZ4UuyG6O7g/M1+2w879Ber7O2h5OC8UTkSqhRvouKDKHUYb0VdeNL08C2SGZMSKr82tmfeNxE2SiBj6cIS3jG2m8hYWTqs33KncUF2oUoy9wEt85Kud2/AQvE/nWBERwpjztMeazR51ylcaYA7+Ymdi/xDK52taGrZcytyLCAJjgJTjZQj/Aq2aNrSjJ9XSjlaWcqo6MF/lkQN7haeM0cU3o1TZudAgbeWwXqV7DrSRiD+opsa+7bZ8S4kQPIyC8nPzyfkyGrq14wLHRxh9c1/0j03z4HoXzRBDvVn7elItSqrAr6oeycFyP1c2Oo7huIjr+FAXZ6lAS9Z6PJ4I8NTcbRwpYLHCXg859xDDTV0hXKF0HhsW1DIIn6o9zE1iUXntv5mHpsB5fujHjFqnZZaqcqHQ5UR9v2L2/Qbty+vfQq8KebPG44iwbZtU8xKcptYwX8e3tDr5s3xYRYSqaHgMPzJff5gnkyd+kD/KEPHXX0cLtoaLQVOBL4LSguPfOBHnkSQT18AFYXvl4Qhuo8+X4whEGVYb/gzzx6AaG98tknwK4b9TiiRKsgaVnZYPkn7GWkBvVBrV+7m1VS8udLGdBmlbnjfw8Sb33h90otkJMKj25WEgWxaUNgQ7fgVGi6P28Qs7IDVtv+xHgQg6+4CFuiMMT77D7mUzqA/QeO2W38EhpSveFJ4S6KA3V6l0OhpOZnhy3nGId4O6osGBIlIXDPOwdnmrw97yeCUQlBzUyMdFixkoIxVbSs8AK64EZrp++8KYfUZMb/vMSiqiaJyrTWAnoOCOyi+g/au17PXKXJfGaU21FE3U1fNf4GJm5CCrNzzs9Ex0EXRj93NF7kqdXcDx8Pi3kzZT2LSGaOChO4dAFrOrrIl5RT3rhNk+wWYX6qgGwK2yqE4qz4SHSt5ySzRAkkxsVjPhx4lT+HpgjG+LPxawZYlsEpVc7xOgaTe+o+mCH292aiywfoDS8w1O2guzY/DXFLFEdwGwYZuf7sYKRwyDyRUUmj33CnXw58LqdG6gUUpuGPKlwb7+Fx+hqKChCnTy20TYv/qTZ51FdtAs5+ZKr3B40dMmyWbknq52cBF69ulsOr/lYj3jHL08PsAjmXZwQwOq0XycezysoAMrMBGQlWJ+iTz/TmXfysGdgYZ6JqyCkMORpFO8aGNZjL0EuuW955mLaTo8pQZW926ZMGWndpZXm/ar3KPAsj5jJEf7XTfBbgJwXw6X4jjwtqsgX1ZQgZtOKgYTPGeouXK7bIzQWdZGzMUPiTp0whrHzmUBhEXXkiZLJ/TyiElRCnUKJhRZz0Uf/80G/gJc7yXLxxslnVkB65MT2E+3ynTt6LCq9SHm6ET/RtbozDKe3Jy+DuI02+t8gCBCujlF/hjUroHLuDt/Jw+J9iCuCG9na4au7g9/PxvOXWM2d/YIapgLnh/8rxHa8Kla47e+n8ewxaWYbx/J0NXcYUisUqZpTZdWA1joGuylPiicoioDWMaUTUxBjQRiQSbM4xbSN9Mt8v+tzr04IngehVrBebpQd8PaxbJlRRqlld4ElOeluYPTdHo6Pwu6PcFuOyjw5Ja31JHGoaQ62V9eduPZEKDH7I8TyZ1HSjXMWdxc4R6ZdbsoTu6jPmAxig9bCJf4OAjWNVlrIJ+vaZKV8U8/2hHvyJGJmuGrQL4u29w5PQn9PxaX0BdfGdrIX6T5B7h7VL5tuzG25q9xchWndc+iS6o1Vtizw0GB3lk873JDtSVdlOI3X4lBX+33XNhHaAWmOYTPVPfu0kIlfMR39UVxe1ceL3OttWR6sJhp5dywZuZUnNfZ7+zXSXLZDrPFZu0OBRVsezeuEClZXQHaSblif5N1evGl+wuYPFj2sqFFP0xsdLFtQFVy529MvDsSyAwiSD06jXT5Mhs6IRDou9RC/DldlyJjKq7+Tj5Cj47JpT14u1asd56BtMAsNWDLyJqnv9bHAqpStYOJZ12uklt35dMM+jV02K/Xg+KgahcXVg3xVSEo9bptlfJJpN+z+NJBtONV5bp2BabXrTklkz3F8lv2glFmmf79ldAQybG1OfI+nRfWmFoa6nDkxHGbgrMw4uPue+wq83rFPeOXAxnQqJlEZ39l5WDvpIFsTtTNfR9PV8oPZKPL3iI+gmaPCtkIQMGlVNhWVG8OaQaez3YSygTUfNc7oML+rXoHwrZ5n5GlWnDs4mYT4MHCdfSbX+a76LmL2uj3c6psr4Z1MOVsxavf2nwc+JbqvED0cxj4c4RCyxr4fNiBOQVd8HLhaUyiW60f/Mtf+fDxYAprlKyvLqhdSXDh5i8Kus+/b43mukeM6uWwj2M+ybkwD2F55M5vPfc+39guWbbGFpvbrtjh4nKcsibhlsYQJ9W9yTJMoMrttF/XAt/Zwy7ZZw7OibXHGZ+0vfJDeqRiXq8W6gfeVezW8aDSsnb0pX4B05zZ7sYknq9Yu1hpvPmQps31X17uqtKxG2nka1RfLeqbU46W4uu6W/jfPup1tjMr5HdR9Omcv0L6euRup8yw9nOX83EVVO1mhdFntanxT/wgeiP0pcjMUFk8GUSjl0enHbCr8H4LQDVO6T8On96a49nMJjIC/R5zPCxy2PDFNkkEk4+fA1L9DXM9ysoqVG36EwdRbHpj6R4j/cKMljxp9M9SyT45OlAceuikr4B7OPkly5Ul/Mas70Xe3ywY8BNwhyNghaOs9lVeYkRr+n1D/AuUvs9MBYtjJGM31HuWbrUMTS+7eP+AxKH+ZESzsctdbDdlcngivFofB5qm5e/+AxyCeChyUrGELo+bJ4+9hG1V5NLd8zvrlAr4EvRYfVZnz8aS9BllA3b+on3egzibMgC9DJVtSGB9rgPfkaSx0p68n2ZDM5ltkAr4G1Ypg9XbMavrsE3N4gu2IPWwqGWa/ERLwZVjWZgb7lh9h8yRQ7jy55IB/hXs8PXY7Y8DfwGufqEeeAr4VkidPfi/I01Phlr9Hgzw9FeY8pY3+tUHPry0EfA9a7Ufon3FIpmb/R+0XCfhbLK9yJyidMuGV7p145zcKA/4d5O9wUquLsZX7Qx/4C4ABf4203hLGBuMH8MShN3GIJ+F/mPtUiPddlc0PBZYCAgICAgICAgICAgICAgICAgICAgICAgICAp4X/wEwx+vAfZ0rUwAAAABJRU5ErkJggg==;imageBorder=none;labelBorderColor=none;imageBackground=none;direction=east;flipH=0;aspect=fixed;" parent="1" vertex="1">
          <mxGeometry x="332" y="410" width="168" height="47.26" as="geometry" />
        </mxCell>
        <mxCell id="vvHby_D0oLCphtpdwOgT-52" value="" style="edgeStyle=orthogonalEdgeStyle;rounded=0;sketch=0;orthogonalLoop=1;jettySize=auto;html=1;shadow=0;labelBorderColor=none;fontSize=14;sourcePerimeterSpacing=2;" parent="1" source="vvHby_D0oLCphtpdwOgT-47" target="vvHby_D0oLCphtpdwOgT-51" edge="1">
          <mxGeometry relative="1" as="geometry" />
        </mxCell>
        <mxCell id="OCMkssHhhSs8Sxf5Pclc-14" value="" style="edgeStyle=orthogonalEdgeStyle;rounded=0;orthogonalLoop=1;jettySize=auto;labelBorderColor=none;html=1;" edge="1" parent="1" source="vvHby_D0oLCphtpdwOgT-47" target="OCMkssHhhSs8Sxf5Pclc-4">
          <mxGeometry relative="1" as="geometry" />
        </mxCell>
        <mxCell id="vvHby_D0oLCphtpdwOgT-47" value="" style="shape=image;html=1;verticalAlign=top;verticalLabelPosition=bottom;labelBackgroundColor=#ffffff;imageAspect=0;aspect=fixed;image=https://cdn4.iconfinder.com/data/icons/socialcones/508/Github-128.png;labelBorderColor=none;sketch=0;strokeWidth=1;fontSize=14;" parent="1" vertex="1">
          <mxGeometry x="94.16" y="140" width="60" height="60" as="geometry" />
        </mxCell>
        <mxCell id="vvHby_D0oLCphtpdwOgT-57" value="" style="edgeStyle=orthogonalEdgeStyle;rounded=0;sketch=0;orthogonalLoop=1;jettySize=auto;html=1;shadow=0;labelBorderColor=none;fontSize=14;sourcePerimeterSpacing=2;" parent="1" source="vvHby_D0oLCphtpdwOgT-51" target="vvHby_D0oLCphtpdwOgT-19" edge="1">
          <mxGeometry relative="1" as="geometry" />
        </mxCell>
        <mxCell id="vvHby_D0oLCphtpdwOgT-51" value="" style="rounded=0;whiteSpace=wrap;html=1;labelBorderColor=none;sketch=0;strokeWidth=1;fontSize=14;" parent="1" vertex="1">
          <mxGeometry x="279" y="130" width="271" height="80" as="geometry" />
        </mxCell>
        <mxCell id="vvHby_D0oLCphtpdwOgT-55" value="dbt&amp;nbsp;cloud" style="text;html=1;align=center;verticalAlign=middle;resizable=0;points=[];autosize=1;strokeColor=none;fillColor=none;fontSize=14;" parent="1" vertex="1">
          <mxGeometry x="298" y="100" width="80" height="30" as="geometry" />
        </mxCell>
        <mxCell id="vvHby_D0oLCphtpdwOgT-56" value="" style="shape=image;verticalLabelPosition=bottom;labelBackgroundColor=default;verticalAlign=top;aspect=fixed;imageAspect=0;image=data:image/png,iVBORw0KGgoAAAANSUhEUgAAAPgAAABaCAMAAACi22vcAAAAY1BMVEX/////aUomKjiSlJvIyc3/9fP/7OhbXmn/2dH/e2D/oY3x8fLj5Ob/s6StrrT/clX/jnZ2eYIyNkP/0MZOUl2foaf/hWzW19n/qpiEho67vMBpbHVBRFH/va//xrv/mIL/492WgG6UAAAG/ElEQVR4nNWcbWOCIBDHLS23dJaVNdNtff9POR/KOOCOA8zs/1KT+AncAyBBcNNhc1rsvteBh9ZNEafNh08Rk+v3c9Fr44y+/rsV8XkYs2ZP1Wq3eOh75VTERijiz6mI6bU+LURtf+yL+NqCIk5vQb6C3G1ntRynw0B5L/KdXOtGO4uhftUV8Pe8+o6lX021LYY6GNyC5m/hlG56E2+oS4P7oc9n19tXB6TijU7Gof6BvbVGc/fnSE/t9UcO9bVucA/aTEXgKMWkA22/0KG++iKfXJympHAQXXs8DjsQvbzXtBzWIrtrJ51ro3t5/8amZ7HSt5FgsZD7u6mXd/p+DQ9bawaD3N/Nzd3IK9ELzmWtXkyyKvQqFYg064N2V+ERNchV5WPUo7JeLpfSxYa6uTgiOKvJFzCUY5A7N/gl3y87iRfTIu4vjgjOGuWttr+PZ1Ymm/7lVpeBWgRPi+NwcUzwFRZ1Kto9orEPw0tyy87CpaDhqnhxTPDghwvejNwBiO4nDil9q9HBm85C3TbGIkJT3pFW1K9cffi44OfyqNpIIEO/hbqnLpQ3cE1QRgQ/d57BAM5zzIP6CUnCG+wcuUcDj+7UJnCuS7tp29ls3KU5u7KRwPXFaMV1aXe1s3JoX3d0ZS8B57u0u/7WmDNwdGWvAbdxaQM6cv3X8FfzAjdMSFjI2bK9CNzKpVHymWt7BXiA9VxLeU21vQTc0qUh8rBsaI2fDB5wplWMcndleI2fDW5MNRmyCdLTrIybYLqO8yK1Bj+HcZfA1lV49gWn1ha44lu2LBZrd8yswLMaPFwkBPhDMVoZu5BdI/ZSYRTLtTpGbPCoXkqqMz/wqyf3lhuka2sWMsG1D1eJqXgK3Dpkl8S1bEpz98pZ4Ln+4aNAbg9uH7KDBme6MqTqDRUDPMMeFsjtwQ0u7UTHtcz5JpS76bBGcGEyEid3ACejmI1hEp43wtEmk6UFp1R6gFO5SheMEuS87CTFm8wXfBl5gOPm7RaE4+Q806Z09DpupHsbFPg+LrvoR0/mAo7siBGSD5SctesllSpT3eKui2rpcfD4ciuskF5YpAEPB2UBISw7FZIujJwVtZWw4aLHnYINXjweSmCrVxpwTq1wcLC9AYnpWeCgifYgzJatHgYOGk4iT+YKfgHVvMCb0tBEwHP4EDSWVMjvBD5WVwc9vZLvwhhcD76XEhJIWTmDoxnaOMYNdMxIvguHuR48lx9KwGtxBsdDN6M74+z9EGukbnkADAi4mn2DcC91BScyU1MAw9jfdSbbTuoQenD1IYAZOYI/OWSNxBoV6v1cW2PxoiYIUQt1AKeTlE96csocuqmNQ9x3Ag/dwJ+dlvqD6yYbRwD3nGg1mjcT+EVb4+eDr70avNH1TcG9F1NMmal/Vy/Vh0De4wQ+wvKZYaUURCjzMW4jLCgY7JtaRyizO9NsYgLjI3MAn2AJCfRKJVR/UQDjbdl60VGMWKO9ctctZAVvK7EH523mNYq2b2Ce5SLfhRm5HlwJdEEv6kcCAE/lBySNtjGATNJAlRRD5Z+WluolcsIpGGHd7C5ywRRkKXKTS5NPenDZNOhKBAWRU4z4JKODayftG2hUOPV0lmYOEXBq6ulmNiL897LQIP3A+PpEEunSYKuKk42RPMWMgYtpXQqn3ErtE5o0cBDqyr443xtJorbByOsJ+c32pHD6lQR/TC+HUml3QybNVddlERVhpZkAwNPwdnaB9e2NqCtBrkz2H6swjJUVbxK8XVDIQ3VBYSBTpqr796XWhhjJ/YZdu6FOubTkeUtID4Ov/xMVnHJlN1NFfUWqinJpF12dRgEXnIR2RVYFp1Z/B1OFfjesEenS1NE8yByrE8vEYuKmXZpUwNH1sk6Dd7Lp76RLQxfIK+CHtOD4xgBounT9qgGP6zqOGhuYtaWb5pse0fcHe8MrnaWhuzkY4FiHkU225mdti4dh4+WLoGpLN9ls8byHH25/p3d2aq1ulQQccP3Dqq9Wu8YdPI6TFtyclYlGGjsZQRGdpZ2VVeF9W3UWeBCpC+NqzqbZFTaA52Hb1RkkoPk+eKGcaRYqg7Fm2LkiHri8O7DSzOX0P4PoA3i0T5a8vbuQ4pfV368G8ibuqjrbu4/Le82TSNDwQ/HiPTZLi7yNeuK4vMjpGviPLO/inH1cFee+rOZakAXh8z6jfu+jElo5fji/nZ7FSqb6Y0clmEO5aTms5Xw4hsm1+XybMoU8jkNZkfZh7kclEAmK+QAcaqhfn193P/kdeYRGsXM/Bgbd9cI+z04906zT3E88CvSzEDbHmq10CevcR3gr/4Ps1AB+7tFLr5X/0YWSlXsP7lEOqwS5i9/HZ5Pq4H886WDlaOc/O7UH0n56YPdl7L5/3gT7HxOHZELgNTThAAAAAElFTkSuQmCC;" parent="1" vertex="1">
          <mxGeometry x="460" y="85" width="82.67" height="30" as="geometry" />
        </mxCell>
        <mxCell id="vvHby_D0oLCphtpdwOgT-58" value="IDE" style="rounded=1;whiteSpace=wrap;html=1;labelBorderColor=none;sketch=0;strokeWidth=1;fontSize=14;" parent="1" vertex="1">
          <mxGeometry x="298" y="145" width="82" height="50" as="geometry" />
        </mxCell>
        <mxCell id="vvHby_D0oLCphtpdwOgT-59" value="Jobs" style="rounded=1;whiteSpace=wrap;html=1;labelBorderColor=none;sketch=0;strokeWidth=1;fontSize=14;" parent="1" vertex="1">
          <mxGeometry x="440" y="145" width="81.67" height="50" as="geometry" />
        </mxCell>
        <mxCell id="vvHby_D0oLCphtpdwOgT-61" style="edgeStyle=orthogonalEdgeStyle;rounded=0;sketch=0;orthogonalLoop=1;jettySize=auto;html=1;exitX=1;exitY=0.5;exitDx=0;exitDy=0;shadow=0;labelBorderColor=none;fontSize=14;sourcePerimeterSpacing=2;" parent="1" source="vvHby_D0oLCphtpdwOgT-9" target="vvHby_D0oLCphtpdwOgT-9" edge="1">
          <mxGeometry relative="1" as="geometry" />
        </mxCell>
        <mxCell id="OCMkssHhhSs8Sxf5Pclc-4" value="" style="rounded=0;whiteSpace=wrap;html=1;fillColor=#dae8fc;strokeColor=#6c8ebf;" vertex="1" parent="1">
          <mxGeometry x="-410" y="115" width="400" height="110" as="geometry" />
        </mxCell>
        <mxCell id="OCMkssHhhSs8Sxf5Pclc-11" value="" style="edgeStyle=orthogonalEdgeStyle;rounded=0;orthogonalLoop=1;jettySize=auto;html=1;" edge="1" parent="1" source="OCMkssHhhSs8Sxf5Pclc-5" target="OCMkssHhhSs8Sxf5Pclc-10">
          <mxGeometry relative="1" as="geometry" />
        </mxCell>
        <mxCell id="OCMkssHhhSs8Sxf5Pclc-5" value="&lt;font color=&quot;#000000&quot;&gt;Cloud&lt;br&gt;Build&lt;/font&gt;" style="sketch=0;html=1;verticalAlign=top;labelPosition=center;verticalLabelPosition=bottom;align=center;spacingTop=-6;fontSize=11;fontStyle=1;fontColor=#999999;shape=image;aspect=fixed;imageAspect=0;image=data:image/svg+xml,PHN2ZyB4bWxucz0iaHR0cDovL3d3dy53My5vcmcvMjAwMC9zdmciIHhtbG5zOnY9Imh0dHBzOi8vdmVjdGEuaW8vbmFubyIgd2lkdGg9IjE3LjMyOTk5OTkyMzcwNjA1NSIgaGVpZ2h0PSIxOS42MTAwMDA2MTAzNTE1NjIiIHZpZXdCb3g9IjAgMCAxNy4zMjk5OTk5MjM3MDYwNTUgMTkuNjEwMDAwNjEwMzUxNTYyIj4mI3hhOwk8c3R5bGUgdHlwZT0idGV4dC9jc3MiPiYjeGE7CS5zdDB7ZmlsbDojNDI4NWY0O30mI3hhOwkuc3Qxe2ZpbGw6IzY2OWRmNjt9JiN4YTsJLnN0MntmaWxsOiNhZWNiZmE7fSYjeGE7CTwvc3R5bGU+JiN4YTsJPHBhdGggY2xhc3M9InN0MCIgZD0iTTEyLjE4IDcuOThMMTEgNy4yOWwtMy41MiA2LjEgMS4xOC42OCAzLjUyLTIuMDN6IiBmaWxsPSIjNDI4NWY0Ii8+JiN4YTsJPHBhdGggY2xhc3M9InN0MSIgZD0iTTYuMzIgMTIuNzJsMy41My02LjA5LTEuMTktLjY5LTMuNTIgMi4wNHY0LjA2eiIgZmlsbD0iIzY2OWRmNiIvPiYjeGE7CTxwYXRoIGNsYXNzPSJzdDIiIGQ9Ik0zLjc1IDcuOThMMCA1LjgxdjkuMmw3Ljk3IDQuNnYtNC4zM2wtNC4yMi0yLjQ0em05LjEzLTEuMmwzLjc2LTIuMTdMOC42NiAwIC42OCA0LjYxbDMuNzYgMi4xNyA0LjIyLTIuNDR6TTkuMzUgMTkuNjFsNy45OC00LjZ2LTkuMmwtMy43NiAyLjE3djQuODZsLTQuMjIgMi40NHoiIGZpbGw9IiNhZWNiZmEiLz4mI3hhOzwvc3ZnPg==;" vertex="1" parent="1">
          <mxGeometry x="-90" y="135" width="51.43" height="60" as="geometry" />
        </mxCell>
        <mxCell id="OCMkssHhhSs8Sxf5Pclc-13" value="" style="edgeStyle=orthogonalEdgeStyle;rounded=0;orthogonalLoop=1;jettySize=auto;html=1;" edge="1" parent="1" source="OCMkssHhhSs8Sxf5Pclc-10" target="OCMkssHhhSs8Sxf5Pclc-12">
          <mxGeometry relative="1" as="geometry" />
        </mxCell>
        <mxCell id="OCMkssHhhSs8Sxf5Pclc-10" value="&lt;font color=&quot;#000000&quot;&gt;Container&lt;br&gt;Registry&lt;/font&gt;" style="sketch=0;html=1;verticalAlign=top;labelPosition=center;verticalLabelPosition=bottom;align=center;spacingTop=-6;fontSize=11;fontStyle=1;fontColor=#999999;shape=image;aspect=fixed;imageAspect=0;image=data:image/svg+xml,PHN2ZyB4bWxucz0iaHR0cDovL3d3dy53My5vcmcvMjAwMC9zdmciIHhtbG5zOnY9Imh0dHBzOi8vdmVjdGEuaW8vbmFubyIgd2lkdGg9IjM3Ny4xNTkzMDIxNjAyNjMwNSIgaGVpZ2h0PSIzMzYuMTYyNDk5MDAzMzEwOCIgdmlld0JveD0iLTAuMDU4MDAwMDA1NzgxNjUwNTQgMC4xMTI5OTk5OTgwMzMwNDY3MiA5OS43OTAwMDA5MTU1MjczNCA4OC45NDMwMDA3OTM0NTcwMyI+JiN4YTs8c3R5bGUgdHlwZT0idGV4dC9jc3MiPiYjeGE7CS5zdDB7ZmlsbDojNjY5ZGY2O30mI3hhOwkuc3Qxe2ZpbGw6I2FlY2JmYTt9JiN4YTsJLnN0MntmaWxsOiM0Mjg1ZjQ7fSYjeGE7PC9zdHlsZT4mI3hhOwk8cGF0aCBjbGFzcz0ic3QwIiBkPSJNNTMuMjQzIDYyLjA5VjQ3LjA5NGwxMy4yMDEgOC40MTZ2MTUuMDM4em0tMzMuMDIxIDBWNDcuMDk0bDEzLjIwMSA4LjQxNnYxNS4wMzh6bTE2LjUxMS0zMi4yODVWMTQuODFsMTMuMjAxIDguNDE2djE1LjAzOHptNjIuOTk5IDMzLjk2VjI1LjQwM2wtOS41NjItMS44ODR2NDIuMTMxem0tOTkuNzg4IDBWMjUuNDAzbDkuNTYyLTEuODg0djQyLjEzMXoiLz4mI3hhOwk8cGF0aCBjbGFzcz0ic3QxIiBkPSJNNTMuMTg1IDQ3LjA5NGwxMy4yNTgtOC4yODcgMTMuMDE2IDguMjM0LTEzLjAxNiA4LjQ2OXptLTMzLjAyMSAwbDEzLjI1OC04LjI4NyAxMy4wMTYgOC4yMzQtMTMuMDE2IDguNDY5ek0zNi42NzUgMTQuODFsMTMuMjU4LTguMjg3IDEzLjAxNiA4LjIzNC0xMy4wMTYgOC40Njl6bTYzLjA1NiA0OC45NTZ2MTIuMjE3TDc3LjAxIDg5LjA1NVY3Ny43NTJ6bTAtMzguMzYzVjEzLjE4Nkw3Ny4wMS4xMTN2MTEuMzAzek0tLjA1OCA2My43NjZ2MTIuMjE3bDIyLjcyMSAxMy4wNzNWNzcuNzUyem0wLTM4LjM2M1YxMy4xODZMMjIuNjYzLjExM3YxMS4zMDN6Ii8+JiN4YTsJPHBhdGggY2xhc3M9InN0MiIgZD0iTTY2LjQ0NCA3MC41NDdWNTUuNTFsMTMuMDE2LTguNDY5djE1LjR6bS0zMy4wMjEgMFY1NS41MWwxMy4wMTYtOC40Njl2MTUuNHptMTYuNTExLTMyLjI4NVYyMy4yMjVsMTMuMDE2LTguNDY5djE1LjR6bTQ5Ljc5OCAyNS41MDNsLTkuNTYyIDUuODh2LTMuOTk2em0wLTM4LjM2M2wtOS41NjItNS44OHYzLjk5NnpNLS4wNTggNjMuNzY2bDkuNTYyIDUuODh2LTMuOTk2em0wLTM4LjM2M2w5LjU2Mi01Ljg4djMuOTk2eiIvPiYjeGE7PC9zdmc+;" vertex="1" parent="1">
          <mxGeometry x="-200" y="140" width="50" height="50" as="geometry" />
        </mxCell>
        <mxCell id="OCMkssHhhSs8Sxf5Pclc-12" value="Cloud&#xa;Run" style="sketch=0;html=1;verticalAlign=top;labelPosition=center;verticalLabelPosition=bottom;align=center;spacingTop=-6;fontSize=11;fontStyle=1;fontColor=#999999;shape=image;aspect=fixed;imageAspect=0;image=data:image/svg+xml,PHN2ZyB4bWxucz0iaHR0cDovL3d3dy53My5vcmcvMjAwMC9zdmciIHhtbG5zOnY9Imh0dHBzOi8vdmVjdGEuaW8vbmFubyIgd2lkdGg9IjM2NS40NjQ5OTY3NzA0MjQ5MyIgaGVpZ2h0PSIzNzkuMjIyOTk0NDYzNTc3OTUiIHZpZXdCb3g9IjAgMCA5Ni42OTU5OTkxNDU1MDc4MSAxMDAuMzM1OTk4NTM1MTU2MjUiPiYjeGE7PHN0eWxlIHR5cGU9InRleHQvY3NzIj4mI3hhOwkuc3Qwe2ZpbGw6IzQyODVmNDt9JiN4YTsJLnN0MXtmaWxsOiNhZWNiZmE7fSYjeGE7PC9zdHlsZT4mI3hhOwk8cGF0aCBjbGFzcz0ic3QwIiBkPSJNMjkuNzk0IDEwMC4zMzZMNDYuOTIgNTAuMTY4aDQ5Ljc3NnpNMCA5OS42NzFsMTIuOTc2LTQ5LjUwMkgyOS4yMkwxNi44OTcgOTIuMDU0eiIvPiYjeGE7CTxwYXRoIGNsYXNzPSJzdDEiIGQ9Ik0yOS43OTQgMEw0Ni45MiA1MC4xNjhoNDkuNzc2ek0wIC42NjZsMTIuOTc2IDQ5LjUwMkgyOS4yMkwxNi44OTcgOC4yODN6Ii8+JiN4YTs8L3N2Zz4=;direction=east;" vertex="1" parent="1">
          <mxGeometry x="-310" y="144" width="42" height="42" as="geometry" />
        </mxCell>
        <mxCell id="OCMkssHhhSs8Sxf5Pclc-19" value="on Push Trigger&lt;br&gt;" style="text;html=1;align=center;verticalAlign=middle;resizable=0;points=[];autosize=1;strokeColor=none;fillColor=none;" vertex="1" parent="1">
          <mxGeometry x="-10" y="145" width="110" height="30" as="geometry" />
        </mxCell>
        <mxCell id="OCMkssHhhSs8Sxf5Pclc-22" value="" style="edgeStyle=orthogonalEdgeStyle;rounded=0;orthogonalLoop=1;jettySize=auto;html=1;entryX=0.25;entryY=0;entryDx=0;entryDy=0;" edge="1" parent="1" source="OCMkssHhhSs8Sxf5Pclc-20" target="OCMkssHhhSs8Sxf5Pclc-12">
          <mxGeometry relative="1" as="geometry">
            <mxPoint x="-370" y="73" as="targetPoint" />
            <Array as="points">
              <mxPoint x="-370" y="124" />
              <mxPoint x="-299" y="124" />
            </Array>
          </mxGeometry>
        </mxCell>
        <mxCell id="OCMkssHhhSs8Sxf5Pclc-20" value="Cloud&#xa;Scheduler" style="sketch=0;html=1;verticalAlign=top;labelPosition=center;verticalLabelPosition=bottom;align=center;spacingTop=-6;fontSize=11;fontStyle=1;fontColor=#999999;shape=image;aspect=fixed;imageAspect=0;image=data:image/svg+xml,PHN2ZyB4bWxucz0iaHR0cDovL3d3dy53My5vcmcvMjAwMC9zdmciIHhtbG5zOnY9Imh0dHBzOi8vdmVjdGEuaW8vbmFubyIgd2lkdGg9IjM2MC4zMDM3NjY4NjA4MzYzIiBoZWlnaHQ9IjM3OC4wNTExNTgwNzc0MDg4IiB2aWV3Qm94PSItMC4wMDAxNjI0MjExNDM2MTM3NTU3IC0wLjAwMDEwMDAwNTk0OTIwNzExNTkyIDk1LjMzMDI2MTIzMDQ2ODc1IDEwMC4wMjYxMDAxNTg2OTE0Ij4mI3hhOzxzdHlsZSB0eXBlPSJ0ZXh0L2NzcyI+JiN4YTsJLnN0MHtmaWxsOiM0Mjg1ZjQ7fSYjeGE7CS5zdDF7ZmlsbDojYWVjYmZhO30mI3hhOwkuc3Qye2ZpbGw6IzY2OWRmNjt9JiN4YTs8L3N0eWxlPiYjeGE7CTxwYXRoIGNsYXNzPSJzdDAiIGQ9Ik03OS45NzEgNzcuNzE1bC03LjM1OSA3LjQ4OCA4LjYzOSA4LjQ5IDcuMzU5LTcuNDg4em0tNjUuMDk2LjA2MWwtOC42NDEgOC40OTIgNy4zNjEgNy40ODggOC42MzktOC40OXoiLz4mI3hhOwk8cGF0aCBjbGFzcz0ic3QxIiBkPSJNNzkuNTUzLjIyMWE1LjI1IDUuMjUgMCAwIDAtMy42NiA4Ljk4NEw4Ni4zODkgMTkuNThhNS4yNSA1LjI1IDAgMCAwIDguOTQxLTMuNzY1IDUuMjUgNS4yNSAwIDAgMC0xLjU2LTMuNzA0TDgzLjI3NSAxLjczOEE1LjI1IDUuMjUgMCAwIDAgNzkuNTUzLjIyMXpNMTUuOTE2IDBhNS4yNSA1LjI1IDAgMCAwLTMuNzIzIDEuNTE2TDEuNjk5IDExLjg5MWE1LjI1IDUuMjUgMCAwIDAtLjA0MyA3LjQyNCA1LjI1IDUuMjUgMCAwIDAgNy40MjQuMDQzTDE5LjU3NiA4Ljk4MkE1LjI1IDUuMjUgMCAwIDAgMTUuOTE2IDB6Ii8+JiN4YTsJPHBhdGggY2xhc3M9InN0MCIgZD0iTTQ4LjEzOCAyNi4yNGMxMy4zNDcgMCAyNS40MzIgMTEuMTM2IDI1LjMxIDI2LjQ4MSAwIDE1LjExLTEyLjI2NyAyNS42NzMtMjUuMTg5IDI1LjY3My0xMS4xNDkgMC0xOC4zMTctNS4xNzEtMjEuOTYtMTAuNzM4bDIxLjgzOS0xNS4wOTd6Ii8+JiN4YTsJPHBhdGggY2xhc3M9InN0MiIgZD0iTTgxLjI1IDkzLjY5M2w0LjY2NCA0LjU4NmE1LjI1IDUuMjUgMCAxIDAgNy4zNjEtNy40OWwtNC42NjYtNC41ODR6TTYuMjM0IDg2LjI2OEwxLjU3IDkwLjg1MWE1LjI1IDUuMjUgMCAwIDAtLjA2NSA3LjQyNCA1LjI1IDUuMjUgMCAwIDAgNy40MjQuMDY0bDQuNjY2LTQuNTg0ek00Ny4zNzEgNS41NzhDMjEuMzQ5IDUuNTc4LjE0NiAyNi43NzkuMTQ2IDUyLjgwMXMyMS4yMDMgNDcuMjI1IDQ3LjIyNSA0Ny4yMjUgNDcuMjI1LTIxLjIwMyA0Ny4yMjUtNDcuMjI1UzczLjM5MyA1LjU3OCA0Ny4zNzEgNS41Nzh6bTAgMTBhMzcuMTUgMzcuMTUgMCAwIDEgMzcuMjI1IDM3LjIyM2MwIDIwLjYxNy0xNi42MDcgMzcuMjI1LTM3LjIyNSAzNy4yMjVTMTAuMTQ2IDczLjQxOCAxMC4xNDYgNTIuODAxYTM3LjE1IDM3LjE1IDAgMCAxIDM3LjIyNS0zNy4yMjN6Ii8+JiN4YTs8L3N2Zz4=;" vertex="1" parent="1">
          <mxGeometry x="-390" y="144" width="40" height="42" as="geometry" />
        </mxCell>
      </root>
    </mxGraphModel>
  </diagram>
</mxfile>
